<?xml version="1.0" encoding="UTF-8"?>
<svg id="Layer_1" data-name="Layer 1" xmlns="http://www.w3.org/2000/svg" viewBox="0 0 906.86 609.17">
  <defs>
    <style>
      .cls-1 {
        fill: none;
      }

      .cls-2 {
        fill: #f1f1f1;
      }

      .cls-3 {
        fill: #00ab6a;
      }

      .cls-4 {
        fill: #151d2a;
      }
    </style>
  </defs>
  <g>
    <path class="cls-4" d="M746.88,163.36c-1.87-3.03-5.23-4.83-9-4.83h-31.8c-2.79,0-5.25,1.1-6.89,2.99-.18.16-14.57,14.55-14.74,14.72-.74.73-1.38,1.58-1.83,2.55l-2.25,4.29-10.3-19.53c-1.43-3.12-4.53-5.03-8.2-5.03h-31.8c-3.03,0-5.78,1.18-7.73,3.21-.18.15-12.53,12.52-12.7,12.7-.11.1-.23.21-.33.31v-6.74c0-5.13-4.34-9.48-9.48-9.48h-31.59c-2.69,0-5.16,1.2-6.9,3.08-.18.16-5.93,5.92-6.1,6.1-.16.15-.31.3-.46.46l-25.1,17.65v-17.82c0-5.13-4.33-9.48-9.48-9.48h-31.58c-2.69,0-5.16,1.2-6.91,3.08-.18.16-2.88,2.88-3.04,3.06-.09.08-.19.15-.26.24-1.3-3.74-4.88-6.37-9.29-6.37-16.77.31-32.14,2.92-45.74,7.7-13.6,4.78-25.42,11.73-35.11,20.72-1.59,1.48-24.22,24.75-26.74,28.2v-47.14c0-5.13-4.34-9.48-9.48-9.48h-31.58c-2.7,0-5.17,1.2-6.91,3.08-.18.16-15.24,15.23-15.46,15.49l-5.15,4.95v-14.04c0-5.13-4.33-9.48-9.48-9.48h-31.58c-2.69,0-5.16,1.2-6.91,3.08-.18.16-9.49,9.48-9.65,9.65-.01.01-.04.04-.05.05l-5.02,5.03-5.87,5.86v-14.2c0-5.13-4.34-9.48-9.48-9.48h-31.59c-2.69,0-5.16,1.2-6.9,3.08-.18.16-14.57,14.56-14.74,14.74-1.88,1.74-3.08,4.21-3.08,6.9v93.62c0,46.28,30.14,67,60.01,67,13.47,0,25.43-4.23,33.83-11.81,8.4,7.57,20.36,11.81,33.83,11.81,12.26,0,24.57-3.49,34.81-10.81v27.3h130.29v-18.75h2.84c2.69,0,5.16-1.2,6.9-3.08.18-.16.35-.34.51-.51.18-.16.35-.33.51-.5.18-.16.34-.34.5-.51.18-.16.35-.33.51-.5.18-.18.34-.34.5-.51.18-.16.35-.34.51-.51.09-.09.19-.16.29-.26,1.31,3.68,4.87,6.4,8.93,6.4h69.93c1.75,0,3.42-.53,4.85-1.4,1.43.88,3.09,1.4,4.85,1.4h69.93c2.69,0,5.16-1.2,6.91-3.08.18-.16.34-.34.5-.51.18-.16.35-.33.51-.5.18-.16.34-.34.5-.51.18-.16.35-.33.51-.5.18-.16.35-.34.51-.51.18-.16.34-.34.5-.51.18-.16.35-.33.51-.5.18-.16.34-.34.5-.51.18-.16.35-.33.51-.5.18-.16.34-.34.5-.51.18-.16.35-.33.51-.5.18-.16.34-.34.51-.51.18-.16.34-.34.5-.51.18-.16.35-.33.51-.5.18-.16.34-.34.5-.51.18-.16.35-.33.51-.5.18-.16.34-.34.5-.51.18-.16.35-.33.51-.5.18-.16.34-.34.51-.51.18-.16.34-.34.5-.51.18-.16.35-.33.51-.5.18-.16.34-.34.5-.51.18-.16.35-.33.51-.5.18-.16.34-.34.5-.51.18-.16.35-.33.51-.5.18-.16.34-.34.51-.51.14-.13.28-.26.4-.4v7.21c0,5.13,4.34,9.48,9.48,9.48h31.58c2.69,0,5.17-1.2,6.91-3.08.18-.16,14.56-14.56,14.72-14.74,1.88-1.74,3.08-4.21,3.08-6.91v-71.79s37.91-71.59,37.94-71.64c1.67-3.33,1.55-7.1-.29-10.08ZM340.53,314.66l.04-.04c.15-.14.29-.28.43-.41v.45h-.46Z"/>
    <path class="cls-2" d="M179.95,261.62v-93.61c0-1.8,1.58-3.38,3.38-3.38h31.58c1.8,0,3.38,1.58,3.38,3.38v93.61c0,18.05,6.09,23.68,15.11,23.68s15.11-5.64,15.11-23.68v-93.61c0-1.8,1.58-3.38,3.38-3.38h31.58c1.8,0,3.38,1.58,3.38,3.38v93.61c0,18.05,6.09,23.68,15.11,23.68s15.11-5.64,15.11-23.68v-93.61c0-1.8,1.58-3.38,3.38-3.38h31.58c1.8,0,3.38,1.58,3.38,3.38v93.61c0,42.86-27.52,60.9-53.91,60.9-12.86,0-25.94-4.29-33.83-14.66-7.89,10.38-20.98,14.66-33.83,14.66-26.39,0-53.91-18.04-53.91-60.9Z"/>
    <path class="cls-2" d="M362.32,272c0-72.86,44.66-106.24,106.92-107.37,2.03,0,3.61,1.35,3.61,3.38v148.87c0,1.8-1.58,3.38-3.38,3.38h-31.58c-1.8,0-3.38-1.58-3.38-3.38v-19.17h-33.83v19.17c0,1.8-1.58,3.38-3.38,3.38h-31.58c-1.8,0-3.38-1.58-3.38-3.38v-44.89ZM434.5,260.49v-50.98c-20.75,8.12-31.13,25.94-33.38,50.98h33.38Z"/>
    <path class="cls-2" d="M558.56,283.05c1.8,0,3.38,1.58,3.38,3.38v30.45c0,1.8-1.58,3.38-3.38,3.38h-69.92c-1.8,0-3.38-1.58-3.38-3.38v-148.87c0-1.8,1.58-3.38,3.38-3.38h31.58c1.8,0,3.38,1.58,3.38,3.38v115.04h34.96Z"/>
    <path class="cls-2" d="M638.18,283.05c1.8,0,3.38,1.58,3.38,3.38v30.45c0,1.8-1.58,3.38-3.38,3.38h-69.92c-1.8,0-3.38-1.58-3.38-3.38v-148.87c0-1.8,1.58-3.38,3.38-3.38h31.58c1.8,0,3.38,1.58,3.38,3.38v115.04h34.96Z"/>
    <path class="cls-2" d="M664.8,243.58l-38.57-72.86c-1.58-3.16.45-6.09,3.83-6.09h31.8c1.13,0,2.26.45,2.71,1.58l19.4,36.77,19.4-36.77c.45-1.13,1.58-1.58,2.71-1.58h31.8c3.38,0,5.41,2.93,3.83,6.09l-38.57,72.86v73.31c0,1.8-1.58,3.38-3.38,3.38h-31.58c-1.8,0-3.38-1.58-3.38-3.38v-73.31Z"/>
    <g>
      <path class="cls-4" d="M654.17,374.84c-.23.44-.46.8-1.83,2.69-.99,1.35-21.37,22.34-21.37,22.34-1.06,1.07-5.42,5.44-11.33,9.24-2.98,1.92-6.27,3.58-9.8,4.95-3.69,1.43-7.69,2.32-11.88,2.64l-24.8,1.95c-.15.01-.31.03-.48.03-4.29,0-6.85-4.02-5.9-7.64l1.13-4.32c-.06.06-.14.14-.2.2-.08.08-.14.14-.2.2-.1.11-.21.21-.31.31-.06.06-.13.13-.2.2-2.05,2.09-4.36,4.11-6.86,5.96-2.6,1.93-5.41,3.58-8.34,4.92-3.21,1.46-6.6,2.34-10.08,2.62-.84.06-1.65.1-2.43.1-6.26,0-10.22-2.14-12.68-4.53-2.23,1.65-4.61,3.11-7.07,4.33-2.98,1.46-6.05,2.33-9.16,2.57-.75.06-1.49.09-2.19.09-7.78,0-11.62-3.59-13.47-6.61-2.64-4.26-3.06-9.95-1.23-16.94l1.34-5.05c-.09.08-.16.16-.25.24-.16.18-.34.35-.51.5-.15.19-.33.35-.5.51-.16.19-.34.35-.51.51-.15.18-.33.34-.5.5-.16.19-.34.35-.51.51-.15.18-.33.34-.51.5-.15.19-.33.35-.5.51-.16.18-.34.35-.51.5-.15.19-.33.35-.5.51-.16.19-.34.35-.51.51-.15.18-.33.34-.5.5-.16.19-.34.35-.51.51-.15.18-.33.34-.5.5-.16.19-.34.35-.51.51-.16.18-.34.35-.51.5-.15.19-.33.35-.5.51-.16.19-.34.35-.51.51-.15.18-.33.34-.5.5-.16.19-.34.35-.51.51-1.03,1.19-2.49,1.97-4.13,2.09l-12.09.95c-.15.01-.31.03-.48.03-1.79,0-3.51-.8-4.67-2.19-1.26-1.52-1.73-3.54-1.23-5.46l.48-1.83-.19.19s-.08.06-.11.1c-.13.13-.25.28-.39.41-.04.02-.08.06-.11.1-.14.13-.26.28-.4.4-.04.04-.08.06-.11.1-.13.14-.25.28-.39.41-.04.02-.08.06-.11.1-.14.13-.26.28-.4.4-.04.04-.08.06-.11.1-.14.14-.26.28-.39.41-.04.04-.08.06-.11.1-.14.13-.26.28-.4.4-.04.04-.08.08-.11.1-.14.14-.26.29-.4.41-.02.04-.08.06-.11.1-.13.13-.25.28-.39.41-.04.03-.08.06-.11.09-.14.14-.26.29-.4.41-.04.04-.08.06-.11.1-.13.14-.25.28-.39.41-.04.03-.08.06-.11.1-.14.13-.26.28-.4.4-.04.04-.08.06-.11.1-.14.14-.26.28-.39.41-.04.04-.08.06-.11.1-.14.13-.26.28-.4.4-.04.04-.08.08-.11.1-.14.14-.26.29-.4.41-.03.04-.08.06-.11.1-.13.13-.25.28-.39.41-.04.02-.08.06-.11.09-.14.14-.26.29-.4.41-3.67,3.52-7.83,6.39-12.35,8.53-4.61,2.18-9.57,3.49-14.74,3.91-1.08.08-2.15.13-3.17.13-4.11,0-7.81-.69-11.01-2.05-2.84-1.21-5.28-2.88-7.3-4.97-1.36,1.04-2.82,2.07-4.33,3.04-2.98,1.92-6.27,3.58-9.8,4.95-3.69,1.43-7.7,2.32-11.88,2.64l-12.71,1c-.41.04-.8.04-1.2.05l-1.48,5.66c-.31,1.16-.95,2.18-1.8,2.95-.15.18-14.55,14.56-14.72,14.72-1.03,1.19-2.49,1.97-4.13,2.1l-13.86,1.09c-.16.01-.33.01-.49.01-1.79,0-3.51-.79-4.67-2.18-1.26-1.52-1.72-3.56-1.21-5.46l5.43-20.67c-.06.05-.11.11-.16.16-.18.18-.34.34-.51.51-.16.16-3.38,3.38-3.56,3.56-1.97,2-4.09,3.87-6.41,5.55-4.39,3.18-9.4,5.77-14.9,7.7-5.43,1.92-11.31,3.13-17.43,3.61-1.67.14-3.28.2-4.83.2-3.87,0-7.45-.41-10.65-1.23-4.86-1.24-8.9-3.37-12.02-6.34-3.26-3.09-5.41-7.01-6.39-11.64-.94-4.32-.69-9.24.74-14.64,1.21-4.49,3.17-8.78,5.81-12.77,1.99-3.04,4.31-5.81,6.87-8.3l12.7-12.7c.18-.18.34-.35.51-.51.06-.06.11-.13.18-.19-1.93-2.44-3.36-5.25-4.26-8.35-1.14-3.96-1.01-8.6.39-13.79.93-3.38,2.39-6.75,4.39-10,1.58-2.58,3.52-4.97,5.77-7.15.23-.22,16.31-16.28,17.29-17.12,3.12-2.64,6.8-4.87,10.92-6.64,4.16-1.78,8.81-2.88,13.85-3.28,1.38-.11,2.74-.16,4.06-.16,7.37,0,13.59,1.77,18.46,5.23,6.11,4.37,9.47,11.16,9.99,20.17.03.43,0,.84-.06,1.25l5.05-.41c.84-.55,1.83-.91,2.88-.99,0,0,12.4-.96,12.56-.96,1.58,0,3.09.6,4.23,1.7.23.21.43.44.61.69.27-.15,7.2-3.4,13.43-3.86.85-.06,1.69-.1,2.5-.1,4.02,0,7.58.84,10.55,2.48,3.69,2.04,6.47,5.05,8.28,8.95.88,1.9,1.51,4.01,1.92,6.29.1-.1.2-.21.3-.3.03-.03.05-.05.09-.08.14-.14,9.42-9.44,9.57-9.58,3.69-3.51,7.84-6.36,12.31-8.49,4.58-2.19,9.53-3.51,14.7-3.92,1.08-.09,2.15-.13,3.18-.13,4.09,0,7.8.69,10.99,2.05,4.21,1.79,7.56,4.58,9.97,8.28.38.59.73,1.19,1.04,1.82h.01c.16-.19,8.46-8.49,8.64-8.64,1.03-1.19,2.49-1.98,4.13-2.1l10.42-.81c.16-.01.31-.03.48-.03,1.55,0,3.07.6,4.21,1.68,1.25,1.19,1.94,2.87,1.89,4.6l-.04,1.11,17.04.5c2.27.06,4.37.6,6.22,1.62.48.25.91.54,1.34.83l3.09-11.93c.3-1.16.95-2.18,1.79-2.95.16-.19,14.56-14.57,14.74-14.74,1.03-1.19,2.49-1.97,4.13-2.09l13.86-1.1c.16-.01.31-.01.48-.01,1.8,0,3.52.79,4.68,2.19,1.26,1.52,1.72,3.54,1.21,5.46l-4.17,15.84,2.38-.19c.16-.01.31-.01.48-.01.08,0,.14.01.21.01.1-.1.2-.19.3-.28.16-.19,4.9-4.93,5.08-5.08,1.01-1.11,2.42-1.87,4.02-1.99l12.08-.95c.16-.01.33-.03.48-.03,1.82,0,3.54.81,4.71,2.22,1.26,1.53,1.7,3.58,1.18,5.5-.5,1.79-.4,2.68-.34,2.98.15.69.43,1.26.86,1.79.78.94,12.63,8.45,14.72,9.74,2.59,1.6,4.87,3.53,6.76,5.71,2.13,2.47,3.63,5.41,4.44,8.76.44,1.8.6,3.72.49,5.77.91-.51,1.95-.8,3.02-.8.84,0,1.7.18,2.52.55l9.79,4.43c1.53.7,2.7,1.98,3.26,3.57.54,1.58.41,3.32-.36,4.81Z"/>
      <path class="cls-3" d="M341.83,366.42c-2.32-2.42-5.07-4.46-8.23-6.13-3.15-1.66-6.23-3.2-9.22-4.64-2.57-1.25-4.86-2.51-6.88-3.78-2.02-1.26-3.64-2.58-4.89-3.94s-2.1-2.81-2.56-4.38c-.46-1.57-.43-3.26.06-5.12.28-1.13.77-2.3,1.51-3.5.74-1.2,1.68-2.34,2.86-3.4,1.19-1.07,2.63-1.97,4.32-2.73,1.71-.77,3.63-1.23,5.79-1.4,1.66-.13,3.35-.04,5.05.28,1.71.32,3.25.95,4.65,1.88,1.38.92,2.56,2.24,3.54,3.94.97,1.69,1.52,3.85,1.67,6.48l14.27-5.4c-.42-7.11-2.9-12.3-7.45-15.56-4.55-3.26-10.72-4.58-18.5-3.96-4.37.34-8.35,1.27-11.92,2.81-3.57,1.53-6.7,3.42-9.38,5.68-2.67,2.27-4.87,4.79-6.56,7.56-1.71,2.78-2.93,5.58-3.7,8.42-1.11,4.11-1.25,7.62-.42,10.5.84,2.9,2.24,5.38,4.23,7.49,1.97,2.1,4.36,3.88,7.14,5.33,2.77,1.45,5.52,2.86,8.23,4.25,3.12,1.48,5.92,2.97,8.39,4.44,2.46,1.47,4.44,3.09,5.93,4.85,1.5,1.76,2.49,3.73,2.98,5.91.48,2.18.34,4.74-.42,7.64-1.04,3.84-2.77,7.03-5.16,9.58-2.39,2.56-5.03,4.6-7.92,6.16-2.88,1.54-5.71,2.66-8.49,3.38-2.78.7-5.03,1.12-6.77,1.26-1.18.09-2.86.01-5.05-.22-2.2-.26-4.26-.89-6.2-1.92-1.95-1.03-3.46-2.57-4.53-4.64-1.09-2.07-1.17-4.92-.26-8.53.48-1.85,1.3-3.62,2.44-5.3,1.14-1.69,2.48-3.18,4.01-4.48,1.53-1.31,3.22-2.37,5.06-3.21,1.85-.84,3.7-1.33,5.58-1.48l3.75-14.05c-3.82.3-7.59,1.3-11.31,2.98-3.71,1.68-7.14,3.84-10.27,6.49-3.12,2.64-5.84,5.7-8.13,9.18-2.29,3.48-3.96,7.14-5,10.97-1.18,4.47-1.41,8.42-.68,11.83.72,3.41,2.28,6.25,4.64,8.49,2.36,2.24,5.47,3.85,9.32,4.84,3.85.98,8.36,1.27,13.5.86,5.63-.44,10.92-1.53,15.88-3.28,4.96-1.74,9.41-4.04,13.34-6.88,3.92-2.85,7.25-6.21,10.01-10.11,2.73-3.9,4.73-8.22,5.98-12.98,1.4-5.33,1.62-9.79.68-13.4-.93-3.61-2.57-6.62-4.89-9.04ZM480.84,350.25c-.25-3.87-1.24-7.15-2.97-9.82-1.74-2.67-4.16-4.67-7.25-5.99-3.1-1.32-6.86-1.81-11.31-1.46-4.45.35-8.64,1.47-12.57,3.34-3.92,1.87-7.51,4.34-10.75,7.4-3.22,3.07-6.03,6.65-8.39,10.72-2.37,4.08-4.17,8.53-5.42,13.35-.98,3.77-.92,6.69-5.62,11.84-1.32,1.46-2.9,2.93-4.74,4.44-1.85,1.51-3.88,2.72-6.1,3.66,3.82-5.51,6.7-11.95,8.65-19.33,1.25-4.68,1.88-8.98,1.88-12.91s-.63-7.25-1.88-9.96c-1.25-2.72-3.15-4.78-5.69-6.17-2.53-1.4-5.76-1.95-9.65-1.65-3.82.3-7.31,1.26-10.48,2.86-3.17,1.6-6.03,3.68-8.6,6.25l.3-7.63-12.09.95-23.46,89.16,13.88-1.09,8.34-31.91c1.32,2.32,3.2,4.05,5.63,5.17,2.43,1.13,5.56,1.54,9.38,1.25l12.72-1c3.62-.28,7.01-1.04,10.17-2.27,3.17-1.21,6.06-2.67,8.7-4.38,2.65-1.71,5.01-3.49,7.09-5.35.62-.56,1.21-1.11,1.78-1.64.37.85.79,1.67,1.28,2.43,1.71,2.69,4.1,4.68,7.19,6,3.1,1.32,6.87,1.81,11.31,1.46,4.46-.35,8.67-1.47,12.63-3.34,3.96-1.88,7.53-4.34,10.73-7.42,3.2-3.06,5.98-6.63,8.35-10.71,2.36-4.08,4.17-8.49,5.42-13.23,1.25-4.84,1.75-9.17,1.51-13.05ZM400.63,369.49c-.76,2.98-1.81,5.71-3.12,8.21-1.33,2.5-2.83,4.68-4.48,6.55-1.67,1.87-3.47,3.36-5.37,4.49-1.92,1.13-3.88,1.76-5.9,1.93-1.87.15-3.49-.25-4.85-1.18-1.35-.93-2.39-2.28-3.12-4.03-.74-1.75-1.13-3.82-1.2-6.2-.07-2.39.25-4.94.93-7.63.7-2.77,1.73-5.41,3.07-7.91,1.37-2.51,2.91-4.73,4.65-6.67,1.74-1.95,3.56-3.52,5.48-4.71,1.9-1.19,3.76-1.86,5.57-2,2.02-.16,3.74.19,5.16,1.05,1.42.86,2.5,2.13,3.24,3.81.72,1.68,1.1,3.74,1.1,6.17s-.39,5.14-1.16,8.12ZM465.57,364.37c-.83,3.05-1.93,5.85-3.28,8.39-1.35,2.53-2.9,4.73-4.64,6.56-1.74,1.83-3.64,3.32-5.73,4.41-2.08,1.1-4.24,1.74-6.47,1.92-4.51.35-7.63-1.18-9.33-4.58-1.69-3.41-1.75-8.2-.15-14.37.84-3.06,1.93-5.85,3.28-8.39,1.37-2.55,2.91-4.74,4.64-6.62,1.74-1.87,3.66-3.36,5.73-4.46,2.09-1.1,4.25-1.74,6.47-1.92,4.52-.35,7.63,1.19,9.33,4.64,1.71,3.45,1.75,8.25.15,14.41Z"/>
      <path class="cls-3" d="M638.97,367.58c-.08.14-.64.97-1.72,2.48-1.07,1.51-2.56,3.18-4.43,5-1.88,1.8-4.1,3.5-6.68,5.09-2.57,1.6-5.38,2.51-8.43,2.76l-1.14.4c2.02-1.34,3.75-2.73,5.21-4.16,1.45-1.44,2.66-2.86,3.64-4.31.98-1.42,1.75-2.84,2.34-4.24.6-1.4,1.03-2.66,1.31-3.8.9-3.48,1.06-6.42.48-8.85-.6-2.42-1.65-4.48-3.13-6.21-1.49-1.71-3.28-3.22-5.36-4.52-2.09-1.3-4.15-2.52-6.17-3.69-2.14-1.28-4.09-2.5-5.82-3.64-1.74-1.14-3.15-2.37-4.22-3.69-1.1-1.31-1.8-2.77-2.15-4.4-.35-1.65-.21-3.6.42-5.87l-12.09.95c-2.81,17.37-6.98,33.36-13.71,45.69h-.02c-.49.86-1.31,2.11-2.5,3.74-1.18,1.62-2.49,3.21-3.96,4.79-1.46,1.57-3.02,2.98-4.68,4.22-1.66,1.25-3.27,1.94-4.79,2.04-1.33.12-2.39-.26-3.19-1.1-.79-.84-.89-2.5-.26-4.98l8.86-33.84,10.93-.85,3.22-12.35-10.93.85,6.35-24.14-13.86,1.09-6.25,24.14-8.43.67-3.24,12.35,8.33-.65-6.95,26.59c-.98,1.39-2.14,2.94-3.49,4.65-1.35,1.69-2.78,3.27-4.27,4.72-1.5,1.43-2.95,2.65-4.38,3.67-1.41,1.03-2.69,1.58-3.8,1.65-.56.06-1.1-.2-1.61-.75-.53-.55-.51-1.78.05-3.7l8.85-33.93c.35-1.42.46-2.73.32-3.94-.14-1.2-.53-2.25-1.16-3.14-.61-.89-1.44-1.6-2.44-2.16-1-.55-2.17-.83-3.49-.85l-23.14-.69.21-7.21-10.41.82-13.77,52.46,12.1-.96,8.54-32.56,15.01.39c1.18.04,2.07.5,2.66,1.35.58.86.7,1.92.36,3.2l-7.5,28.31c-1.39,5.31-1.23,9.38.53,12.19,1.73,2.81,5.06,4.03,9.99,3.64,2.37-.19,4.67-.84,6.94-1.95,2.25-1.12,4.4-2.45,6.46-4.01,1.73-1.32,3.38-2.73,4.91-4.26.3,1.37.82,2.58,1.53,3.66,2.11,3.18,5.96,4.53,11.5,4.1,2.79-.22,5.47-.91,8.05-2.09,2.56-1.18,4.96-2.6,7.23-4.27,2.25-1.67,4.31-3.46,6.16-5.33,1.83-1.88,3.43-3.63,4.78-5.28,1.37-1.64,2.44-3.03,3.24-4.16.7-.98,1.11-1.61,1.26-1.85l.05.02c.16-.27.32-.53.47-.79.35.69.74,1.42,1.13,2.15.08.15.14.26.19.34v.02l.08.13c.11.19.19.42.28.65.2.51.27.91.3,1.17-.04.05-.07.11-.09.15l-.06.07-.04.09-.46.88c-.43.85-.56,1.76-.35,2.57l-2.53,4.68c-.05.08-.08.18-.14.25-.36.39-.61.89-.86,1.4l-.88,1.73v.05s-.04.06-.04.06c-.39.88-.42,1.81-.11,2.66.33.83.9,1.45,1.66,1.81l1.82.98.12.06.13.06c.44.18.92.26,1.41.26,1.07,0,2.07-.47,2.7-1.26l20.77-1.65c3.61-.28,7-1.04,10.15-2.27,3.18-1.21,6.06-2.67,8.7-4.38,2.65-1.71,5.01-3.48,7.09-5.35,2.08-1.86,3.85-3.61,5.31-5.26,1.46-1.65,2.6-3.04,3.43-4.18.84-1.13,1.28-1.79,1.35-1.93l-9.79-4.44ZM596.41,384.22c0,.07-.02.15-.05.2l-.47.79c-.18.32-.33.43-.29.46l-.33-.15-.3.19c-.36.23-.57.53-.7.76l-2.84,5.33c-.07.15-.13.28-.19.39-.11.22-.18.36-.19.53l-.02.19c-.05.09-.13.27-.3.58l-.97,1.69c-.13.26-.42.28-.51.28-.13,0-.25-.02-.3-.05l-1.92-1.03c-.08-.04-.18-.09-.25-.27-.07-.19.01-.41.04-.46l.88-1.74c.07-.13.25-.5.35-.65l.14-.14c.07-.09.23-.35.48-.77l2.77-5.17c.3-.4.4-.91.25-1.28l-.08-.26-.16-.07c-.01-.09.01-.28.13-.51l.43-.84c.06-.09.12-.16.2-.22l.23-.15.05-.26c.12-.64.13-1.72-.47-3.26-.12-.29-.25-.63-.4-.91,0-.02-.08-.16-.2-.39-.39-.7-1.28-2.36-1.86-3.6-.2-.4-.36-.78-.44-1.05l-.06-.16c-.18-.47-1.02-2.94.53-6.58l5.08-10.31s.65-1.28,2-2.31c.58-.46,1.21-.79,1.96-1.05,1.73-.55,3.89-.28,6.06.85l8.67,4.55c2.04,1.09,3.35,2.42,3.99,4.09.97,2.53-.04,4.93-.36,5.61l-5.61,9.97c-2.02,3.18-4.32,4.02-5.29,4.26-.4.12-1.23.27-2.24.39-1.3.18-2.69.3-3.15.35h-.19c-2.44.34-3.56,1.25-3.92,1.62l-.22.26.06.32Z"/>
    </g>
  </g>
  <rect class="cls-1" x=".58" y=".58" width="905.7" height="608"/>
</svg>